<svg xmlns="http://www.w3.org/2000/svg" viewBox="0 0 501 513.95"><defs><style>.cls-1{fill:#1c1e52;stroke:#293582;stroke-miterlimit:10;}.cls-2{fill:#f8a13b;}.cls-3{fill:none;}.cls-4,.cls-5{fill:#fff;}.cls-5{opacity:0.7;}</style></defs><title>na stronę</title><g id="Layer_1" data-name="Layer 1"><rect class="cls-1" x="0.5" y="10.02" width="500" height="500"/></g><g id="grid"><polygon class="cls-2" points="407.07 266.48 155.64 181.82 164.9 154.3 104 184.51 134.22 245.42 143.49 217.9 394.93 302.56 407.07 266.48"/><polygon class="cls-2" points="108.91 56.55 353.36 139.16 344.06 166.67 405 136.52 374.85 75.58 365.55 103.09 121.09 20.48 108.91 56.55"/><polygon class="cls-2" points="108.67 348.46 352.33 434.46 342.67 461.85 404 432.52 374.66 371.19 365 398.57 121.33 312.57 108.67 348.46"/></g><g id="helix"><rect class="cls-3" x="180.26" y="286.12" width="143.06" height="217.59" transform="translate(-0.74 10.81) rotate(-0.18)"/><path class="cls-4" d="M323.43,429.11c-.11-36.16-143.16-31.06-143.29-73.93l-.22-68.83c.13,42.87,143.18,37.76,143.29,73.93Z" transform="translate(0.5 10.02)"/><path class="cls-5" d="M180.6,503.94c-.11-36.16,143-32,142.83-74.82l-.22-68.83c.13,42.87-142.94,38.66-142.83,74.82Z" transform="translate(0.5 10.02)"/><rect class="cls-3" x="180.32" y="148.18" width="143.06" height="217.59"/><path class="cls-4" d="M322.88,281.37c0-36.16-143.06-31.51-143.06-74.38V138.16c0,42.87,143.06,38.21,143.06,74.38Z" transform="translate(0.5 10.02)"/><path class="cls-5" d="M179.82,355.75c0-36.16,143.06-31.51,143.06-74.37V212.55c0,42.87-143.06,38.21-143.06,74.37Z" transform="translate(0.5 10.02)"/><rect class="cls-3" x="143.02" y="27.47" width="217.59" height="143.06" transform="translate(152.52 360.52) rotate(-89.82)"/><path class="cls-4" d="M323.24,133.64c.11-36.16-143-32-142.83-74.82L180.62-10c-.13,42.87,142.94,38.66,142.83,74.82Z" transform="translate(0.5 10.02)"/><path class="cls-5" d="M179.94,207.57c.11-36.16,143.16-31.06,143.3-73.93l.22-68.83c-.13,42.87-143.18,37.76-143.3,73.93Z" transform="translate(0.5 10.02)"/></g></svg>